<?xml version="1.0" encoding="UTF-8" standalone="no"?>
<!DOCTYPE svg PUBLIC "-//W3C//DTD SVG 1.1//EN" "http://www.w3.org/Graphics/SVG/1.1/DTD/svg11.dtd">
<svg width="100%" height="100%" viewBox="0 0 121 121" version="1.1" xmlns="http://www.w3.org/2000/svg" xmlns:xlink="http://www.w3.org/1999/xlink" xml:space="preserve" xmlns:serif="http://www.serif.com/" style="fill-rule:evenodd;clip-rule:evenodd;stroke-linecap:round;stroke-linejoin:round;stroke-miterlimit:1.5;">
    <g transform="matrix(1,0,0,1,-119.5,-19.5)">
        <path d="M120,20L120,140" style="fill:none;stroke:black;stroke-width:1px;"/>
        <g transform="matrix(1,0,0,1,20,0)">
            <path d="M140,20L140,140" style="fill:none;stroke:black;stroke-width:1px;"/>
        </g>
        <g transform="matrix(1,0,0,1,60,0)">
            <path d="M140,20L140,140" style="fill:none;stroke:black;stroke-width:1px;"/>
        </g>
        <g transform="matrix(1,0,0,1,100,0)">
            <path d="M140,20L140,140" style="fill:none;stroke:black;stroke-width:1px;"/>
        </g>
        <path d="M120,20L240,80L120,140" style="fill:none;stroke:black;stroke-width:1px;"/>
        <path d="M200,20L240,40L120,100L200,140L240,120L120,60L200,20Z" style="fill:none;stroke:black;stroke-width:1px;"/>
    </g>
</svg>
